# xmcd
# 
# Track frame offsets:
#     150
#     19405
#     38553
#     57810
# 
# Disc length: 1024
# 
# Revision: 3
# Processed by: cddbd v1.5.2PL0 Copyright (c) Steve Scherf et al.
# Submitted via: fre:ac v1.0.17
# 
DISCID=2903fe04
DTITLE=氷菓 - 君にまつわるミステリー
DYEAR=2012
DGENRE=Anime
TTITLE0=君にまつわるミステリー
TTITLE1=フェードin/out
TTITLE2=君にまつわるミステリー(Inst.)
TTITLE3=フェードin/out(Inst.)
EXTD=
EXTT0=
EXTT1=
EXTT2=
EXTT3=
PLAYORDER=
